<svg width="1920" height="1064" viewBox="0 0 1920 1064" fill="none" xmlns="http://www.w3.org/2000/svg">
<rect width="1920" height="1064" fill="black"/>
<path d="M638.429 617.217V594.266H653.983V475.061H638.404V451.87H697.366V475.061H681.787V594.266H697.366V617.217H638.429Z" fill="white"/>
<path d="M777.403 617.217H717.653V595.924H734.291V529.881L725.467 526.588H716.642V505.271H744.447L759.976 518.85L775.036 505.271H807.5L835.304 530.097V592.391L844.129 595.924H852.978V617.217H822.339L808.831 602.461V540.167L795.84 528.703H775.85L760.789 542.042V595.924H777.403V617.217Z" fill="white"/>
<path d="M867.816 617.217V595.587H884.429V529.881L875.605 526.588H866.756V505.271H894.56L910.927 520.027V595.755H927.812V617.385L867.816 617.217ZM896.384 447.663L916.375 465.688L896.113 483.953L876.123 465.929L896.384 447.663Z" fill="white"/>
<path d="M1017.68 617.218H981.327L954.558 593.185V526.589H939.497V505.271H954.558V476.432H981.056V505.271H1017.68V526.589H981.056V581.865L996.388 595.684H1017.68V617.218Z" fill="white"/>
<path d="M1133.81 617.217H1077.7L1040.98 475.061H1028.78V451.87H1089.29V475.061H1069.82L1100.14 594.049H1113.37L1142.95 475.061H1123.45V451.87H1181.9V475.061H1170.21L1133.81 617.217Z" fill="white"/>
<path d="M1261.89 617.217H1212.79L1184.98 592.175V530.097L1212.79 505.271H1257.45L1285.01 530.097V554.9L1269.95 568.478H1211.5V583.956L1223.46 594.722H1252.54L1268.91 579.966L1286.17 595.419L1261.89 617.217ZM1211.48 551.174H1252.79L1258.51 548.771V538.221L1246.55 527.454H1223.38L1211.43 538.221L1211.48 551.174Z" fill="white"/>
<path d="M1375.4 617.217H1304.48V595.924H1321.98V529.881L1312.64 526.588H1303.27V505.271H1331.59L1347.17 519.33L1362.78 505.271H1388.49V528.223H1364.85L1347.59 542.643V595.828H1375.4V617.217Z" fill="white"/>
<path d="M1494.87 572.492V595.443L1470.72 617.217H1423.44L1401.62 597.318L1417.74 583.042L1431.77 595.684H1460.34L1469.16 587.945V579.75L1460.34 572.035H1426.81L1402.66 550.237V527.069L1426.81 505.271H1472.54L1495.41 525.651L1479.29 540.071L1464.23 526.492H1437.49L1428.12 534.928V542.138L1437.49 550.574H1470.72L1494.87 572.492Z" fill="white"/>
<path d="M1593.59 617.217H1544.49L1516.71 592.175V530.097L1544.49 505.271H1589.18L1616.71 530.097V554.9L1601.65 568.478H1543.21V583.956L1555.14 594.722H1584.25L1600.62 579.966L1617.87 595.419L1593.59 617.217ZM1543.21 551.174H1584.5L1590.22 548.771V538.221L1578.33 527.526H1555.21L1543.28 538.293L1543.21 551.174Z" fill="white"/>
<path d="M475.273 494.912H398.293V569.967H475.273V494.912Z" fill="#8B2EF9"/>
<path d="M415.919 402V446.918H349.07V512.096H303V434.373L336.203 402H415.919Z" fill="#8B2EF9"/>
<path d="M570.595 434.373V512.096H524.55V446.918H457.676V402H537.417L570.595 434.373Z" fill="#8B2EF9"/>
<path d="M570.595 552.808V630.531L537.417 662.904H457.676V617.986H524.55V552.808H570.595Z" fill="#8B2EF9"/>
<path d="M415.919 617.986V662.904H336.203L303 630.531V552.808H349.07V617.986H415.919Z" fill="#8B2EF9"/>
</svg>
